{
  "accessors": [
    {
      "bufferView": 2,
      "componentType": 5126,
      "count": 14988,
      "max": [
        4.760577201843262,
        5.435005187988281,
        2.3348608016967773
      ],
      "min": [
        -4.549215316772461,
        -5.161247253417969,
        -1.36228609085083
      ],
      "type": "VEC3"
    },
    {
      "bufferView": 2,
      "byteOffset": 179856,
      "componentType": 5126,
      "count": 14988,
      "max": [
        0.9999071955680847,
        0.9996433854103088,
        0.9919276237487793
      ],
      "min": [
        -0.9999831318855286,
        -0.9983309507369995,
        -0.9999837279319763
      ],
      "type": "VEC3"
    },
    {
      "bufferView": 1,
      "componentType": 5126,
      "count": 14988,
      "max": [
        0.9472386240959167,
        0.9992458820343018
      ],
      "min": [
        0.0007381307077594101,
        0.0216066837310791
      ],
      "type": "VEC2"
    },
    {
      "bufferView": 0,
      "componentType": 5125,
      "count": 81423,
      "type": "SCALAR"
    },
    {
      "bufferView": 2,
      "byteOffset": 359712,
      "componentType": 5126,
      "count": 65532,
      "max": [
        3.7983734607696533,
        4.7828240394592285,
        6.723517417907715
      ],
      "min": [
        -3.5792489051818848,
        -6.017586708068848,
        -7.880947589874268
      ],
      "type": "VEC3"
    },
    {
      "bufferView": 2,
      "byteOffset": 1146096,
      "componentType": 5126,
      "count": 65532,
      "max": [
        0.99997478723526,
        0.9999932646751404,
        0.9999365210533142
      ],
      "min": [
        -0.9999984502792358,
        -0.9999997615814209,
        -0.9960063695907593
      ],
      "type": "VEC3"
    },
    {
      "bufferView": 1,
      "byteOffset": 119904,
      "componentType": 5126,
      "count": 65532,
      "max": [
        0.9939993619918823,
        0.9997097849845886
      ],
      "min": [
        0.0002815723419189453,
        0.008041739463806152
      ],
      "type": "VEC2"
    },
    {
      "bufferView": 0,
      "byteOffset": 325692,
      "componentType": 5125,
      "count": 330294,
      "type": "SCALAR"
    },
    {
      "bufferView": 2,
      "byteOffset": 1932480,
      "componentType": 5126,
      "count": 13558,
      "max": [
        3.8137481212615967,
        4.7828240394592285,
        6.645183563232422
      ],
      "min": [
        -3.5709574222564697,
        -5.639424800872803,
        -7.470831871032715
      ],
      "type": "VEC3"
    },
    {
      "bufferView": 2,
      "byteOffset": 2095176,
      "componentType": 5126,
      "count": 13558,
      "max": [
        0.9999566078186035,
        0.9999826550483704,
        0.9991124868392944
      ],
      "min": [
        -0.9993598461151123,
        -0.998976469039917,
        -0.9960063695907593
      ],
      "type": "VEC3"
    },
    {
      "bufferView": 1,
      "byteOffset": 644160,
      "componentType": 5126,
      "count": 13558,
      "max": [
        0.9279488921165466,
        0.999695360660553
      ],
      "min": [
        0.00034826394403353333,
        0.5006859302520752
      ],
      "type": "VEC2"
    },
    {
      "bufferView": 0,
      "byteOffset": 1646868,
      "componentType": 5125,
      "count": 43764,
      "type": "SCALAR"
    }
  ],
  "asset": {
    "extras": {
      "author": "db4 (https://sketchfab.com/db4)",
      "license": "CC-BY-4.0 (http://creativecommons.org/licenses/by/4.0/)",
      "source": "https://sketchfab.com/3d-models/3-penan-handwoven-rattan-basket-square-base-37574ff1f14943469b1e7828920b1216",
      "title": "#3 Penan Handwoven Rattan Basket (Square Base)"
    },
    "generator": "Sketchfab-13.49.0",
    "version": "2.0"
  },
  "bufferViews": [
    {
      "buffer": 0,
      "byteLength": 1821924,
      "name": "floatBufferViews",
      "target": 34963
    },
    {
      "buffer": 0,
      "byteLength": 752624,
      "byteOffset": 1821924,
      "byteStride": 8,
      "name": "floatBufferViews",
      "target": 34962
    },
    {
      "buffer": 0,
      "byteLength": 2257872,
      "byteOffset": 2574548,
      "byteStride": 12,
      "name": "floatBufferViews",
      "target": 34962
    }
  ],
  "buffers": [
    {
      "byteLength": 4832420,
      "uri": "scene.bin"
    }
  ],
  "extensionsUsed": [
    "KHR_materials_unlit"
  ],
  "images": [
    {
      "uri": "textures/Material0.001_baseColor.png"
    },
    {
      "uri": "textures/Material0.002_baseColor.png"
    }
  ],
  "materials": [
    {
      "doubleSided": true,
      "extensions": {
        "KHR_materials_unlit": {}
      },
      "name": "Material0.001",
      "pbrMetallicRoughness": {
        "baseColorTexture": {
          "index": 0
        },
        "metallicFactor": 0.0
      }
    },
    {
      "doubleSided": true,
      "extensions": {
        "KHR_materials_unlit": {}
      },
      "name": "Material0.002",
      "pbrMetallicRoughness": {
        "baseColorTexture": {
          "index": 1
        },
        "metallicFactor": 0.0
      }
    }
  ],
  "meshes": [
    {
      "name": "Stereo textured mesh_Material0.001_0",
      "primitives": [
        {
          "attributes": {
            "NORMAL": 1,
            "POSITION": 0,
            "TEXCOORD_0": 2
          },
          "indices": 3,
          "material": 0,
          "mode": 4
        }
      ]
    },
    {
      "name": "Stereo textured mesh.001_Material0.002_0",
      "primitives": [
        {
          "attributes": {
            "NORMAL": 5,
            "POSITION": 4,
            "TEXCOORD_0": 6
          },
          "indices": 7,
          "material": 1,
          "mode": 4
        }
      ]
    },
    {
      "name": "Stereo textured mesh.001_Material0.002_0",
      "primitives": [
        {
          "attributes": {
            "NORMAL": 9,
            "POSITION": 8,
            "TEXCOORD_0": 10
          },
          "indices": 11,
          "material": 1,
          "mode": 4
        }
      ]
    }
  ],
  "nodes": [
    {
      "children": [
        1
      ],
      "matrix": [
        0.0476190485060215,
        0.0,
        0.0,
        0.0,
        0.0,
        1.0573552812425446e-17,
        -0.0476190485060215,
        0.0,
        0.0,
        0.0476190485060215,
        1.0573552812425446e-17,
        0.0,
        0.0,
        0.0,
        0.0,
        1.0
      ],
      "name": "Sketchfab_model"
    },
    {
      "children": [
        2
      ],
      "matrix": [
        0.009999999776482582,
        0.0,
        0.0,
        0.0,
        0.0,
        0.0,
        0.009999999776482582,
        0.0,
        0.0,
        -0.009999999776482582,
        0.0,
        0.0,
        0.0,
        0.0,
        0.0,
        1.0
      ],
      "name": "57f814580bcc40c196b746887f06d74b.fbx"
    },
    {
      "children": [
        3,
        5
      ],
      "name": "RootNode"
    },
    {
      "children": [
        4
      ],
      "matrix": [
        70.47998000814428,
        4.270057363555011,
        14.083288968260607,
        0.0,
        13.912175127809427,
        7.038773235157336e-06,
        -69.6236409792903,
        0.0,
        -4.070968857182013,
        69.87678804326308,
        -0.8134527157370974,
        0.0,
        40.99999237060547,
        10.999998092651367,
        -16.000001907348633,
        1.0
      ],
      "name": "Stereo textured mesh"
    },
    {
      "mesh": 0,
      "name": "Stereo textured mesh_Material0.001_0"
    },
    {
      "children": [
        6,
        7
      ],
      "matrix": [
        100.0,
        0.0,
        0.0,
        0.0,
        0.0,
        -1.629206793918314e-05,
        -99.99999999999868,
        0.0,
        0.0,
        99.99999999999868,
        -1.629206793918314e-05,
        0.0,
        0.0,
        766.0,
        0.0,
        1.0
      ],
      "name": "Stereo textured mesh.001"
    },
    {
      "mesh": 1,
      "name": "Stereo textured mesh.001_Material0.002_0"
    },
    {
      "mesh": 2,
      "name": "Stereo textured mesh.001_Material0.002_0"
    }
  ],
  "samplers": [
    {
      "magFilter": 9729,
      "minFilter": 9987,
      "wrapS": 10497,
      "wrapT": 10497
    }
  ],
  "scene": 0,
  "scenes": [
    {
      "name": "Sketchfab_Scene",
      "nodes": [
        0
      ]
    }
  ],
  "textures": [
    {
      "sampler": 0,
      "source": 0
    },
    {
      "sampler": 0,
      "source": 1
    }
  ]
}
